<svg width="18" height="20" viewBox="0 0 18 20" fill="none" xmlns="http://www.w3.org/2000/svg">
<path d="M9.9563 0.400589C10.2454 0.392927 10.5317 0.466635 10.7795 0.614456C11.0275 0.762379 11.2275 0.978569 11.3508 1.23848C11.4743 1.4987 11.5148 1.78977 11.4661 2.07344C11.4235 2.3216 11.3141 2.55219 11.1526 2.74434L11.0803 2.82442L9.99829 3.92891C10.5864 4.10009 11.146 4.37039 11.636 4.74825L14.3889 6.87129C14.6956 7.10824 14.8957 7.45581 14.9387 7.84004C14.9763 8.17655 14.8901 8.51146 14.7004 8.78828L14.6125 8.90352C14.0957 9.51462 13.1707 9.60587 12.5374 9.11739L9.78345 6.99434C9.39411 6.69397 8.83194 6.54882 8.25903 6.58321C7.68558 6.61772 7.15856 6.82783 6.82837 7.16524L3.7981 10.2609C3.60785 10.4554 3.47523 10.6918 3.41333 10.9465C3.38893 11.0486 3.37625 11.1535 3.37329 11.258V11.259C3.3583 11.7321 3.55806 12.245 3.99243 12.6516L7.35571 15.7961L7.36646 15.8059C7.73726 16.1424 8.23499 16.3317 8.75415 16.3273C9.27343 16.3229 9.76785 16.1252 10.1321 15.7824L12.0149 13.9904C12.1537 13.8582 12.3174 13.7543 12.4963 13.6838C12.6752 13.6133 12.8663 13.5771 13.0588 13.5773C13.2514 13.5776 13.4426 13.6147 13.6213 13.6857C13.7999 13.7567 13.9635 13.8608 14.1018 13.9934C14.6881 14.5565 14.6889 15.4757 14.0989 16.0383L12.2141 17.8322C10.3224 19.6326 7.24862 19.6585 5.32544 17.8928L5.32349 17.8908L5.29321 17.8625L5.29224 17.8615L1.92798 14.717C1.52859 14.3456 1.19543 13.9139 0.942627 13.4387L0.839111 13.2316C0.712417 12.9632 0.611312 12.6841 0.53833 12.3977L0.539307 12.3967C0.374646 11.7586 0.355972 11.094 0.485596 10.4484C0.514415 10.3053 0.550548 10.1633 0.593994 10.0236L0.677979 9.78145C0.889518 9.22446 1.21725 8.71445 1.64185 8.2834L4.6731 5.18965L8.92505 0.848831C9.0588 0.711784 9.21862 0.602157 9.39478 0.525589C9.57128 0.448885 9.76169 0.406685 9.95435 0.400589H9.9563ZM15.7141 10.0119C15.9068 10.0119 16.0986 10.0476 16.2776 10.1184C16.4565 10.1891 16.6203 10.2935 16.759 10.426C16.8978 10.5585 17.0091 10.7171 17.0852 10.8928C17.1611 11.0681 17.2006 11.2566 17.2004 11.4475L17.1926 11.59C17.1782 11.7321 17.1422 11.8714 17.0852 12.0031C17.0091 12.1787 16.8978 12.3374 16.759 12.4699C16.6203 12.6024 16.4565 12.7068 16.2776 12.7775C16.0986 12.8483 15.9068 12.885 15.7141 12.885H7.71216C7.51958 12.8849 7.32851 12.8482 7.14966 12.7775C6.97069 12.7068 6.80699 12.6024 6.66821 12.4699C6.52941 12.3374 6.41813 12.1788 6.34204 12.0031C6.26603 11.8275 6.22652 11.6387 6.22681 11.4475C6.22668 11.2566 6.26614 11.0681 6.34204 10.8928C6.41813 10.7171 6.5294 10.5585 6.66821 10.426C6.80698 10.2935 6.97071 10.1891 7.14966 10.1184C7.32849 10.0477 7.5196 10.0119 7.71216 10.0119H15.7141Z" stroke="white" stroke-width="0.8"/>
</svg>
